
nColumns=19
nRows=51
DataType=double
version=3
OpenSimVersion=4.4-2022-10-11-798caa840
endheader
time	ground_force_calcn_r_vx	ground_force_calcn_r_vy	ground_force_calcn_r_vz	ground_force_calcn_r_px	ground_force_calcn_r_py	ground_force_calcn_r_pz	ground_force_calcn_r_mx	ground_force_calcn_r_my	ground_force_calcn_r_mz	ground_force_calcn_l_vx	ground_force_calcn_l_vy	ground_force_calcn_l_vz	ground_force_calcn_l_px	ground_force_calcn_l_py	ground_force_calcn_l_pz	ground_force_calcn_l_mx	ground_force_calcn_l_my	ground_force_calcn_l_mz
3.86	1.6506e-06	-9.5134e-07	-3.51013e-08	1.52165	0	-0.442686	-6.36768e-22	3.67007e-22	1.35413e-23	-103.629	841.617	44.8646	2.02089	0	-0.561743	-0.311596	2.53063	0.134902
3.865	1.96228e-06	-1.07565e-06	-2.24677e-08	1.53501	0	-0.442644	-2.58887e-21	1.41913e-21	2.96422e-23	-98.7213	835.269	43.2535	2.02068	0	-0.561874	-0.277855	2.3509	0.121739
3.87	4.39437e-06	-2.29958e-06	-1.70051e-08	1.54922	0	-0.442532	-1.85744e-20	9.71999e-21	7.18783e-23	-93.9341	827.2089999999999	41.7323	2.02051	0	-0.562015	-0.243646	2.14561	0.108245
3.875	1.35902e-05	-6.81114e-06	2.72877e-08	1.5642	0	-0.442363	-2.03365e-19	1.01923e-19	-4.08336e-22	-89.2705	817.516	40.3901	2.02035	0	-0.562168	-0.209017	1.91413	0.094569
3.88	1.55357e-05	-7.48881e-06	9.370039999999999e-08	1.57982	0	-0.442165	-3.05658e-18	1.47339e-18	-1.84352e-20	-84.7131	806.288	39.26	2.02017	0	-0.562329	-0.174165	1.65768	0.08071639999999999
3.885	-9.32535e-05	4.33759e-05	-8.04343e-07	1.59599	0	-0.441954	-1.94674e-17	9.05507e-18	-1.67913e-19	-80.2465	793.687	38.3567	2.01996	0	-0.562497	-0.139467	1.37941	0.06666320000000001
3.89	-0.000109036	4.90946e-05	-1.08871e-06	1.61263	0	-0.44175	9.43871e-17	-4.24987e-17	9.42444e-19	-75.875	779.937	37.6619	2.01972	0	-0.562671	-0.104653	1.07575	0.0519461
3.895	-9.36012e-05	4.09077e-05	-9.682920000000001e-07	1.62964	0	-0.441567	8.8172e-17	-3.8535e-17	9.12128e-19	-71.5596	765.288	37.1735	2.01945	0	-0.56285	-0.07019359999999999	0.75068	0.0364639
3.9	-7.83446e-05	3.33255e-05	-7.67226e-07	1.64696	0	-0.441421	6.91934e-17	-2.94329e-17	6.77609e-19	-67.322	750.071	36.8505	2.01915	0	-0.563033	-0.0364475	0.406081	0.0199505
3.905	-6.80815e-05	2.82471e-05	-5.850629999999999e-07	1.66452	0	-0.44132	4.91701e-17	-2.04007e-17	4.22547e-19	-63.1871	734.626	36.6924	2.01883	0	-0.563219	-0.00459119	0.053378	0.00266607
3.91	-6.34756e-05	2.57436e-05	-4.35604e-07	1.68226	0	-0.441271	3.49352e-17	-1.41685e-17	2.39744e-19	-59.1479	719.249	36.6423	2.01849	0	-0.563404	0.0242848	-0.295307	-0.0150445
3.915	-6.41704e-05	2.54836e-05	-3.06817e-07	1.70016	0	-0.441276	3.39387e-17	-1.34778e-17	1.6227e-19	-55.2055	704.1799999999999	36.6637	2.01815	0	-0.563586	0.0496336	-0.6331059999999999	-0.0329632
3.92	-7.07961e-05	2.75759e-05	-1.72867e-07	1.71817	0	-0.441337	3.02182e-17	-1.17703e-17	7.37856e-20	-51.3609	689.634	36.6794	2.01782	0	-0.563762	0.0712938	-0.957276	-0.0509145
3.925	-8.50914e-05	3.25527e-05	1.39139e-09	1.73628	0	-0.441452	2.39471e-17	-9.161240000000001e-18	-3.91576e-22	-47.6126	675.774	36.641	2.01753	0	-0.563932	0.0887879	-1.26018	-0.06832820000000001
3.93	-0.000111079	4.1792e-05	2.79699e-07	1.75447	0	-0.441618	2.37639e-17	-8.94082e-18	-5.98377e-20	-43.9248	662.561	36.48	2.01728	0	-0.564096	0.101606	-1.53263	-0.084385
3.935	-0.000156334	5.79084e-05	7.760110000000001e-07	1.77275	0	-0.44183	1.26125e-17	-4.67184e-18	-6.26058e-20	-40.3304	649.989	36.1911	2.01709	0	-0.564253	0.109977	-1.77245	-0.0986891
3.94	-0.000235414	8.59446e-05	1.71613e-06	1.79111	0	-0.442085	-1.36786e-17	4.99378e-18	9.9715e-20	-36.825	638.157	35.7678	2.01698	0	-0.564409	0.114431	-1.98303	-0.111146
3.945	-0.000375504	0.000135239	3.53605e-06	1.80956	0	-0.442375	-8.61919e-17	3.10423e-17	8.11653e-19	-33.4429	627.111	35.2758	2.01701	0	-0.564569	0.115372	-2.16342	-0.121695
3.95	-0.0006283009999999999	0.000223441	7.1124e-06	1.8281	0	-0.442696	-2.92662e-16	1.04079e-16	3.31295e-18	-30.1481	616.647	34.7287	2.01717	0	-0.564733	0.112941	-2.3101	-0.130102
3.955	-0.00109044	0.000383222	1.41401e-05	1.84675	0	-0.443043	-8.75876e-16	3.07815e-16	1.13577e-17	-27.0298	606.736	34.2159	2.01742	0	-0.564898	0.107979	-2.4238	-0.136687
3.96	-0.00194362	0.000675569	2.78459e-05	1.86552	0	-0.443409	-2.50912e-15	8.72127e-16	3.59477e-17	-24.1672	597.45	33.7511	2.01777	0	-0.565061	0.101114	-2.49968	-0.141212
3.965	-0.00352141	0.00121145	5.41259e-05	1.88443	0	-0.44379	-7.10429e-15	2.44404e-15	1.09197e-16	-21.5212	588.807	33.3429	2.0182	0	-0.565217	0.0927496	-2.53757	-0.143697
3.97	-0.00642585	0.00218962	0.0001035	1.90349	0	-0.444179	-2.00172e-14	6.82088e-15	3.22414e-16	-19.0826	580.953	33.0536	2.01874	0	-0.5653629999999999	0.0834206	-2.53967	-0.144496
3.975	-0.0117034	0.00395277	0.000193578	1.9227	0	-0.444574	-5.62178e-14	1.89873e-14	9.298629999999999e-16	-16.8786	573.856	32.827	2.01934	0	-0.565493	0.0737583	-2.50771	-0.143451
3.98	-0.0211092	0.00707179	0.000352275	1.94209	0	-0.444968	-1.57213e-13	5.26678e-14	2.6236e-15	-14.8836	567.696	32.6917	2.02003	0	-0.5656099999999999	0.0640659	-2.44363	-0.140721
3.985	-0.0374183	0.0124426	0.000619823	1.96165	0	-0.445358	-4.36221e-13	1.45055e-13	7.22586e-15	-13.2168	562.7619999999999	32.6147	2.02087	0	-0.565715	0.055317	-2.35536	-0.136505
3.99	-0.0647891	0.0214002	0.00105075	1.9814	0	-0.445741	-1.1946e-12	3.94583e-13	1.93739e-14	-11.8849	558.97	32.5197	2.02178	0	-0.565795	0.0478263	-2.24937	-0.130864
3.995	-0.108958	0.035775	0.00170935	2.00133	0	-0.446114	-3.21502e-12	1.05561e-12	5.04376e-14	-10.7443	556.4349999999999	32.3131	2.02277	0	-0.565849	0.0410664	-2.12678	-0.123505
4	-0.177296	0.0579085	0.00265336	2.02145	0	-0.446474	-8.46586e-12	2.76511e-12	1.26697e-13	-9.89278	555.263	31.9357	2.02386	0	-0.565877	0.0354967	-1.99236	-0.11459
4.005	-0.278311	0.0904898	0.00390732	2.04175	0	-0.446816	-2.17411e-11	7.06891e-12	3.05233e-13	-9.22817	555.462	31.279	2.02504	0	-0.565883	0.0306743	-1.84635	-0.103971
4.01	-0.421058	0.136373	0.00544467	2.06223	0	-0.447138	-5.43279e-11	1.75959e-11	7.02509e-13	-8.630839999999999	557.03	30.3446	2.02632	0	-0.565873	0.0261822	-1.68979	-0.0920525
4.015	-0.6139210000000001	0.198188	0.00715608	2.08288	0	-0.447435	-1.31963e-10	4.26008e-11	1.53821e-12	-8.02754	559.85	29.1717	2.02771	0	-0.565851	0.0219497	-1.5308	-0.0797643
4.02	-0.864328	0.278258	0.008826199999999999	2.10369	0	-0.447705	-3.11526e-10	1.00291e-10	3.18119e-12	-7.33973	563.7190000000001	27.8308	2.02919	0	-0.565827	0.0179343	-1.37743	-0.06800349999999999
4.025	-1.17762	0.378241	0.0101029	2.12464	0	-0.447942	-7.15202e-10	2.29716e-10	6.13573e-12	-6.53498	568.354	26.4868	2.03077	0	-0.5658069999999999	0.0143225	-1.24564	-0.0580501
4.03	-1.55676	0.499065	0.0105096	2.14572	0	-0.448144	-1.59791e-09	5.12258e-10	1.07874e-11	-5.58302	573.476	25.2379	2.03244	0	-0.565795	0.0111455	-1.14485	-0.050383
4.035	-2.00055	0.640378	0.009441140000000001	2.16692	0	-0.448305	-3.47519e-09	1.11241e-09	1.64004e-11	-4.51491	578.816	24.2106	2.03419	0	-0.565798	0.008456679999999999	-1.08415	-0.0453478
4.04	-2.50219	0.800129	0.0062545	2.18823	0	-0.448422	-7.34608e-09	2.34907e-09	1.83623e-11	-3.36645	584.157	23.4567	2.03601	0	-0.565817	0.00616826	-1.07034	-0.0429792
4.045	-3.04874	0.974367	0.000327916	2.20962	0	-0.44849	-1.50687e-08	4.81591e-09	1.62076e-12	-2.16181	589.369	22.9769	2.0379	0	-0.565856	0.00405864	-1.10649	-0.0431374
4.05	-3.6234	1.15787	-0.00890467	2.23109	0	-0.448507	-2.99674e-08	9.576150000000001e-09	-7.36461e-11	-0.93163	594.462	22.7707	2.03985	0	-0.565916	0.00187916	-1.19907	-0.0459301
4.055	-4.20309	1.34335	-0.0218552	2.25263	0	-0.448468	-5.77513e-08	1.84578e-08	-3.00294e-10	0.349988	599.551	22.7642	2.04186	0	-0.566001	-0.0007836950000000001	-1.34252	-0.0509737
4.06	-4.75504	1.52045	-0.0385621	2.27423	0	-0.448368	-1.07711e-07	3.44412e-08	-8.73508e-10	1.68851	604.697	22.948	2.04394	0	-0.566114	-0.00427568	-1.53123	-0.0581094
4.065	-5.23213	1.67422	-0.0583615	2.2959	0	-0.448204	-1.9405e-07	6.20938e-08	-2.16452e-09	3.12293	610	23.2908	2.04609	0	-0.566257	-0.00902992	-1.76381	-0.0673451
4.07	-5.56155	1.78159	-0.079148	2.31762	0	-0.447973	-3.35871e-07	1.07593e-07	-4.77987e-09	4.66764	615.645	23.7633	2.04832	0	-0.566428	-0.0154486	-2.03762	-0.07865030000000001
4.075	-5.65192	1.81344	-0.0972977	2.33942	0	-0.447672	-5.54902e-07	1.78042e-07	-9.552619999999999e-09	6.31958	621.7569999999999	24.3776	2.05061	0	-0.566622	-0.0238819	-2.34963	-0.0921236
4.08	-5.40133	1.73699	-0.108065	2.3613	0	-0.447302	-8.66736e-07	2.78731e-07	-1.73409e-08	8.093629999999999	628.408	25.1184	2.05298	0	-0.566831	-0.0346664	-2.69158	-0.107586
4.085	-4.75024	1.53236	-0.106963	2.38328	0	-0.44686	-1.26645e-06	4.08539e-07	-2.85171e-08	9.96123	635.614	25.9613	2.05542	0	-0.567048	-0.0478061	-3.05045	-0.124594
4.09	-3.72593	1.20675	-0.09209059999999999	2.40538	0	-0.44634	-1.70268e-06	5.51464e-07	-4.20838e-08	11.9043	643.319	26.8897	2.05792	0	-0.567265	-0.06317059999999999	-3.41379	-0.142691
4.095	-2.502	0.814402	-0.066626	2.42758	0	-0.445728	-2.077e-06	6.76066e-07	-5.53087e-08	13.8934	651.38	27.8589	2.06048	0	-0.567474	-0.0804382	-3.77127	-0.161293
4.1	-1.35128	0.442514	-0.038219	2.44978	0	-0.444985	-2.27154e-06	7.43877e-07	-6.424700000000001e-08	15.9303	659.691	28.8222	2.0631	0	-0.567668	-0.0994356	-4.11774	-0.179906
4.105	-0.523516	0.172693	-0.0155367	2.47146	0	-0.443973	-2.19784e-06	7.25005e-07	-6.522629999999999e-08	17.9867	668.1079999999999	29.7308	2.06578	0	-0.567843	-0.11966	-4.44472	-0.19779
4.11	-0.0937603	0.0312083	-0.00284515	2.4875	0	-0.441456	-1.73272e-06	5.76739e-07	-5.25793e-08	20.0443	676.451	30.5599	2.0685	0	-0.567993	-0.140536	-4.74278	-0.214263
